<?xml version="1.0" encoding="UTF-8"?>
<svg width="700pt" fill="current" height="700pt" version="1.1" viewBox="0 0 700 700" xmlns="http://www.w3.org/2000/svg">
 <g>
  <path d="m385 70h-70c-13.926 0-27.277 5.5312-37.125 15.375-9.8438 9.8477-15.375 23.199-15.375 37.125v17.5h-105c-6.2539 0-12.031 3.3359-15.156 8.75s-3.125 12.086 0 17.5 8.9023 8.75 15.156 8.75h19.336l26.355 237.16c2.3789 21.402 12.562 41.172 28.605 55.535 16.043 14.363 36.82 22.305 58.352 22.305h119.7c21.535 0.003906 42.312-7.9375 58.359-22.301 16.051-14.359 26.238-34.137 28.613-55.539l26.426-237.16h19.25c6.2539 0 12.031-3.3359 15.156-8.75s3.125-12.086 0-17.5-8.9023-8.75-15.156-8.75h-105v-17.5c0-13.926-5.5312-27.277-15.375-37.125-9.8477-9.8438-23.199-15.375-37.125-15.375zm-87.5 52.5c0-4.6406 1.8438-9.0938 5.125-12.375s7.7344-5.125 12.375-5.125h70c4.6406 0 9.0938 1.8438 12.375 5.125s5.125 7.7344 5.125 12.375v17.5h-105zm164.5 285.79c-1.4258 12.836-7.5312 24.699-17.152 33.316s-22.082 13.383-34.996 13.391h-119.7c-12.91-0.007812-25.371-4.7734-34.988-13.387-9.6211-8.6133-15.73-20.469-17.16-33.305l-25.953-233.31h275.91z"/>
  <path d="m297.5 227.5c-4.6406 0-9.0938 1.8438-12.375 5.125s-5.125 7.7344-5.125 12.375v105c0 6.2539 3.3359 12.031 8.75 15.156s12.086 3.125 17.5 0 8.75-8.9023 8.75-15.156v-105c0-4.6406-1.8438-9.0938-5.125-12.375s-7.7344-5.125-12.375-5.125z"/>
  <path d="m402.5 227.5c-4.6406 0-9.0938 1.8438-12.375 5.125s-5.125 7.7344-5.125 12.375v105c0 6.2539 3.3359 12.031 8.75 15.156s12.086 3.125 17.5 0 8.75-8.9023 8.75-15.156v-105c0-4.6406-1.8438-9.0938-5.125-12.375s-7.7344-5.125-12.375-5.125z"/>
 </g>
</svg>
